<svg width="40" height="40" viewBox="0 0 40 40" fill="none" xmlns="http://www.w3.org/2000/svg">
<circle cx="20" cy="20" r="20" fill="#0F0F0F"/>
<path d="M20.0027 13.8467C16.5974 13.8467 13.8508 16.594 13.8508 20C13.8508 23.406 16.5974 26.1533 20.0027 26.1533C23.4079 26.1533 26.1546 23.406 26.1546 20C26.1546 16.594 23.4079 13.8467 20.0027 13.8467ZM20.0027 24.0004C17.8021 24.0004 16.0031 22.2064 16.0031 20C16.0031 17.7936 17.7968 15.9996 20.0027 15.9996C22.2086 15.9996 24.0022 17.7936 24.0022 20C24.0022 22.2064 22.2032 24.0004 20.0027 24.0004ZM27.8412 13.595C27.8412 14.3929 27.1987 15.0302 26.4062 15.0302C25.6085 15.0302 24.9713 14.3876 24.9713 13.595C24.9713 12.8024 25.6138 12.1598 26.4062 12.1598C27.1987 12.1598 27.8412 12.8024 27.8412 13.595ZM31.9157 15.0517C31.8247 13.1291 31.3856 11.4261 29.9775 10.023C28.5747 8.61988 26.8721 8.18074 24.9499 8.08435C22.9689 7.97188 17.0311 7.97188 15.0501 8.08435C13.1333 8.17539 11.4307 8.61453 10.0225 10.0176C8.61439 11.4207 8.1807 13.1237 8.08433 15.0463C7.97189 17.0278 7.97189 22.9669 8.08433 24.9483C8.17535 26.8709 8.61439 28.5739 10.0225 29.977C11.4307 31.3801 13.1279 31.8193 15.0501 31.9157C17.0311 32.0281 22.9689 32.0281 24.9499 31.9157C26.8721 31.8246 28.5747 31.3855 29.9775 29.977C31.3803 28.5739 31.8193 26.8709 31.9157 24.9483C32.0281 22.9669 32.0281 17.0331 31.9157 15.0517ZM29.3564 27.0744C28.9388 28.1241 28.1303 28.9327 27.0755 29.3558C25.496 29.9824 21.7481 29.8378 20.0027 29.8378C18.2572 29.8378 14.504 29.977 12.9298 29.3558C11.8804 28.9381 11.0719 28.1294 10.649 27.0744C10.0225 25.4946 10.1671 21.7458 10.1671 20C10.1671 18.2542 10.0279 14.5001 10.649 12.9256C11.0666 11.8759 11.8751 11.0673 12.9298 10.6442C14.5093 10.0176 18.2572 10.1622 20.0027 10.1622C21.7481 10.1622 25.5014 10.023 27.0755 10.6442C28.1249 11.0619 28.9334 11.8706 29.3564 12.9256C29.9828 14.5054 29.8383 18.2542 29.8383 20C29.8383 21.7458 29.9828 25.4999 29.3564 27.0744Z" fill="white"/>
</svg>
