<svg width="18" height="25" viewBox="0 0 18 25" fill="none" xmlns="http://www.w3.org/2000/svg">
<g clip-path="url(#clip0)">
<path d="M16.4012 4.2811C14.884 1.66274 12.189 0.06308 9.19223 0.00194702C9.06428 -0.000689696 8.93553 -0.000689696 8.80753 0.00194702C5.81078 0.06308 3.11584 1.66274 1.59855 4.2811C0.0476767 6.95745 0.00524509 10.1723 1.48503 12.8808L7.68438 24.2278C7.68718 24.2329 7.68998 24.238 7.69283 24.2429C7.96558 24.717 8.45423 25 8.99998 25C9.54568 25 10.0343 24.717 10.307 24.2429C10.3099 24.238 10.3127 24.2329 10.3154 24.2278L16.5148 12.8808C17.9945 10.1723 17.9521 6.95745 16.4012 4.2811ZM8.99988 11.3281C7.06133 11.3281 5.48423 9.751 5.48423 7.8125C5.48423 5.87395 7.06133 4.29687 8.99988 4.29687C10.9384 4.29687 12.5155 5.87395 12.5155 7.8125C12.5155 9.751 10.9384 11.3281 8.99988 11.3281Z" fill="#93BB1C"/>
</g>
<defs>
<clipPath id="clip0">
<rect width="18" height="25" fill="white"/>
</clipPath>
</defs>
</svg>
