<svg width="25" height="25" viewBox="0 0 25 25" fill="none" xmlns="http://www.w3.org/2000/svg">
<path fill-rule="evenodd" clip-rule="evenodd" d="M20.7906 4.17509C18.598 1.97983 15.6819 0.77033 12.5752 0.769043C6.17368 0.769043 0.963762 5.97882 0.961187 12.3821C0.960329 14.429 1.49505 16.4271 2.51143 18.1884L0.86377 24.2065L7.02055 22.5915C8.71699 23.5169 10.6269 24.0046 12.5705 24.0051H12.5754C18.9762 24.0051 24.1867 18.7949 24.1891 12.3914C24.1904 9.28803 22.9835 6.37021 20.7906 4.17509ZM12.5752 22.0438H12.5712C10.8392 22.043 9.14042 21.5776 7.65813 20.6982L7.30579 20.4889L3.65227 21.4474L4.62744 17.8853L4.39785 17.5201C3.43154 15.9831 2.92127 14.2067 2.92213 12.3828C2.92413 7.06058 7.25458 2.73056 12.5791 2.73056C15.1574 2.73142 17.5812 3.73678 19.4036 5.5614C21.2261 7.38602 22.2292 9.81131 22.2283 12.3907C22.226 17.7133 17.8959 22.0438 12.5752 22.0438ZM17.8701 14.8141C17.58 14.6688 16.1532 13.9669 15.8871 13.87C15.6214 13.7731 15.4277 13.7249 15.2344 14.0153C15.0409 14.3057 14.4848 14.9594 14.3154 15.153C14.1461 15.3467 13.977 15.371 13.6867 15.2257C13.3965 15.0805 12.4615 14.7739 11.353 13.7853C10.4904 13.0158 9.90803 12.0655 9.73866 11.7751C9.56957 11.4844 9.73723 11.3425 9.86598 11.1829C10.1801 10.7928 10.4947 10.3838 10.5914 10.1903C10.6882 9.99656 10.6397 9.82704 10.5671 9.68185C10.4947 9.53665 9.91433 8.10828 9.67257 7.52707C9.43682 6.96144 9.19778 7.03783 9.01954 7.02896C8.85046 7.02052 8.65691 7.01881 8.46336 7.01881C8.26996 7.01881 7.95553 7.09133 7.68945 7.38201C7.42352 7.67255 6.67393 8.3745 6.67393 9.80287C6.67393 11.2312 7.71377 12.6111 7.85883 12.8048C8.00388 12.9985 9.90517 15.9296 12.8161 17.1865C13.5085 17.4857 14.0489 17.6641 14.4705 17.7979C15.1657 18.0187 15.7982 17.9875 16.2983 17.9129C16.8559 17.8295 18.015 17.2108 18.2571 16.533C18.4988 15.8551 18.4988 15.2741 18.4262 15.153C18.3538 15.032 18.1602 14.9594 17.8701 14.8141Z" fill="#93BB1C"/>
</svg>
